# xmcd
#
# Track frame offsets: 
#        150
#        22351
#        50873
#        76574
#        97446
#        110150
#        137773
#        163577
#        182109
#        202263
#        229265
#
# Disc length: 3214 seconds
#
# Revision: 1
# Processed by: cddbd v1.5.2PL0 Copyright (c) Steve Scherf et al.
# Submitted via: ExactAudioCopy v0.99pb5
#
DISCID=a80c8c0b
DTITLE=Bobby Hutcherson - For Sentimental Reasons
DYEAR=2007
DGENRE=Jazz
TTITLE0=(I Love You) For Sentimental Reasons
TTITLE1=Ode To Angela
TTITLE2=Embraceable You
TTITLE3=Along Came Betty
TTITLE4=Somewhere
TTITLE5=Jitterbug Waltz
TTITLE6=What Are You Doing The Rest Of Your Life
TTITLE7=Don't Blame Me
TTITLE8=Spring Is Here
TTITLE9=I Wish I Knew
TTITLE10=I'll Be Seeing You
EXTD=YEAR: 2007
EXTT0=
EXTT1=
EXTT2=
EXTT3=
EXTT4=
EXTT5=
EXTT6=
EXTT7=
EXTT8=
EXTT9=
EXTT10=
PLAYORDER=
